HIERARCHY
ROOT Hips
{
	OFFSET -0.001795 -0.223333 0.028219
	CHANNELS 6 Xposition Yposition Zposition Zrotation Yrotation Xrotation 
	JOINT LeftUpLeg
	{
		OFFSET 0.069520 -0.091406 -0.006815
		CHANNELS 3 Zrotation Yrotation Xrotation
		JOINT LeftLeg
		{
			OFFSET 0.034277 -0.375199 -0.004496
			CHANNELS 3 Zrotation Yrotation Xrotation
			JOINT LeftFoot
			{
				OFFSET -0.013596 -0.397961 -0.043693
				CHANNELS 3 Zrotation Yrotation Xrotation
				JOINT LeftToe
				{
					OFFSET 0.026358 -0.055791 0.119288
					CHANNELS 3 Zrotation Yrotation Xrotation
					End Site
					{
						OFFSET 0.000000 0.000000 0.000000
					}
				}
			}
		}
	}
	JOINT RightUpLeg
	{
		OFFSET -0.067670 -0.090522 -0.004320
		CHANNELS 3 Zrotation Yrotation Xrotation
		JOINT RightLeg
		{
			OFFSET -0.038290 -0.382569 -0.008850
			CHANNELS 3 Zrotation Yrotation Xrotation
			JOINT RightFoot
			{
				OFFSET 0.015774 -0.398415 -0.042312
				CHANNELS 3 Zrotation Yrotation Xrotation
				JOINT RightToe
				{
					OFFSET -0.025372 -0.048144 0.123348
					CHANNELS 3 Zrotation Yrotation Xrotation
					End Site
					{
						OFFSET 0.000000 0.000000 0.000000
					}
				}
			}
		}
	}
	JOINT Spine
	{
		OFFSET -0.002533 0.108963 -0.026696
		CHANNELS 3 Zrotation Yrotation Xrotation
		JOINT Spine1
		{
			OFFSET 0.005487 0.135180 0.001092
			CHANNELS 3 Zrotation Yrotation Xrotation
			JOINT Spine2
			{
				OFFSET 0.001457 0.052922 0.025425
				CHANNELS 3 Zrotation Yrotation Xrotation
				JOINT Neck
				{
					OFFSET -0.002778 0.213870 -0.042857
					CHANNELS 3 Zrotation Yrotation Xrotation
					JOINT Head
					{
						OFFSET 0.005152 0.064970 0.051349
						CHANNELS 3 Zrotation Yrotation Xrotation
						End Site
						{
							OFFSET 0.000000 0.000000 0.000000
						}
					}
				}
				JOINT LeftShoulder
				{
					OFFSET 0.078845 0.121749 -0.034090
					CHANNELS 3 Zrotation Yrotation Xrotation
					JOINT LeftArm
					{
						OFFSET 0.090977 0.030469 -0.008868
						CHANNELS 3 Zrotation Yrotation Xrotation
						JOINT LeftForeArm
						{
							OFFSET 0.259612 -0.012772 -0.027456
							CHANNELS 3 Zrotation Yrotation Xrotation
							JOINT LeftHand
							{
								OFFSET 0.249234 0.008986 -0.001171
								CHANNELS 3 Zrotation Yrotation Xrotation
								End Site
								{
									OFFSET 0.000000 0.000000 0.000000
								}
							}
						}
					}
				}
				JOINT RightShoulder
				{
					OFFSET -0.081759 0.118833 -0.038615
					CHANNELS 3 Zrotation Yrotation Xrotation
					JOINT RightArm
					{
						OFFSET -0.096012 0.032551 -0.009143
						CHANNELS 3 Zrotation Yrotation Xrotation
						JOINT RightForeArm
						{
							OFFSET -0.253742 -0.013329 -0.021401
							CHANNELS 3 Zrotation Yrotation Xrotation
							JOINT RightHand
							{
								OFFSET -0.255298 0.007772 -0.005559
								CHANNELS 3 Zrotation Yrotation Xrotation
								End Site
								{
									OFFSET 0.000000 0.000000 0.000000
								}
							}
						}
					}
				}
			}
		}
	}
}
MOTION
Frames: 12
Frame Time: 0.050000
0.009867 0.933646 -0.018876 0.986807 -16.625654 3.776576 4.559658 -0.018205 -1.570719 -4.465425 0.644969 -1.869372 8.899467 17.826232 10.344476 0.000000 0.000000 0.000000 -8.680499 0.837930 -7.555880 -0.298857 0.144833 2.437223 5.817808 7.985280 6.988717 0.000000 0.000000 0.000000 2.339110 0.630926 -8.312664 3.938155 -1.483018 -10.516944 -3.629228 -5.229381 13.745525 -2.972113 1.675547 -7.728388 0.000000 0.000000 0.000000 29.681226 -17.985625 0.372881 12.734541 -47.123000 -3.829980 20.740084 -1.759382 0.249629 0.000000 0.000000 0.000000 0.084144 3.216648 0.903474 68.573449 1.686632 -9.670356 10.540489 21.369002 1.960836 0.000000 0.000000 0.000000 
0.010040 0.933506 -0.019614 1.145032 -16.339159 3.555129 4.471629 -0.015171 -1.435459 -4.549583 0.653191 -1.924001 8.736529 17.575643 10.260306 0.000000 0.000000 0.000000 -8.927418 0.828842 -7.384194 -0.127873 0.132767 2.518874 5.671270 7.784660 6.873030 0.000000 0.000000 0.000000 2.390495 0.642449 -8.429703 3.744859 -1.414197 -10.484908 -3.578557 -5.251049 13.966969 -3.924257 2.442425 -7.236041 0.000000 0.000000 0.000000 29.377981 -18.310594 0.471434 13.548443 -47.276828 -4.159667 19.764723 -1.080531 0.301606 0.000000 0.000000 0.000000 0.468148 3.577861 0.937884 67.883194 1.664528 -9.462712 10.397390 21.561785 1.961746 0.000000 0.000000 0.000000 
0.010282 0.933459 -0.020252 1.336162 -16.052540 3.518015 4.377998 -0.031259 -1.605228 -4.697651 0.671866 -1.807873 8.591265 17.342592 10.213793 0.000000 0.000000 0.000000 -9.271905 0.837214 -7.577808 0.137638 0.125915 2.889467 5.499514 7.533379 6.758380 0.000000 0.000000 0.000000 2.314374 0.645712 -8.548024 3.820918 -1.447184 -10.212243 -3.734213 -5.139107 13.652046 -4.370238 2.868044 -6.538252 0.000000 0.000000 0.000000 29.306778 -18.405801 0.569966 14.281182 -47.740927 -4.526070 18.876622 -0.270636 0.363648 0.000000 0.000000 0.000000 0.599099 3.688352 0.953819 67.368815 1.220820 -9.487118 10.438895 21.453797 1.967788 0.000000 0.000000 0.000000 
0.010533 0.933752 -0.020909 1.435751 -15.695123 3.548829 4.254925 -0.047660 -1.742317 -4.615304 0.656054 -1.852230 8.416797 17.053781 10.268103 0.000000 0.000000 0.000000 -9.440976 0.836705 -7.683590 0.269380 0.120212 3.047359 5.360280 7.214331 6.807020 0.000000 0.000000 0.000000 2.626586 0.673462 -8.678138 3.302431 -1.233017 -10.876271 -3.707317 -5.004062 14.324367 -4.888669 3.308946 -6.333265 0.000000 0.000000 0.000000 29.121441 -18.979179 0.654613 15.417301 -47.736640 -4.973428 18.349435 0.540603 0.426870 0.000000 0.000000 0.000000 1.424409 3.851128 0.843661 66.474627 0.940587 -9.367744 10.009987 21.617309 1.928448 0.000000 0.000000 0.000000 
0.010765 0.933807 -0.021548 1.352150 -15.527895 3.590737 4.517977 -0.039994 -1.747221 -4.901658 0.691787 -2.001591 8.311512 16.883120 10.256694 0.000000 0.000000 0.000000 -9.412315 0.829739 -7.600660 0.382383 0.099329 2.851727 5.334046 7.074128 6.919498 0.000000 0.000000 0.000000 2.858707 0.706407 -8.879597 2.959318 -1.098246 -11.211401 -3.559374 -4.931704 14.773359 -4.912287 3.329365 -6.393553 0.000000 0.000000 0.000000 29.239213 -19.268912 0.643949 16.110491 -47.621262 -5.202165 17.750102 1.502581 0.511418 0.000000 0.000000 0.000000 1.856094 3.862117 0.763248 65.861418 0.865471 -9.249103 9.615772 21.667778 1.873825 0.000000 0.000000 0.000000 
0.010918 0.934062 -0.022226 1.281258 -15.103726 3.771734 4.800165 -0.054710 -2.107421 -5.191148 0.727835 -1.868556 8.104104 16.545215 10.229216 0.000000 0.000000 0.000000 -9.404011 0.827828 -7.780447 0.536404 0.088641 2.963961 5.180881 6.693298 7.017034 0.000000 0.000000 0.000000 2.882810 0.708184 -8.939083 3.071247 -1.139495 -10.929900 -3.773572 -4.767612 14.145042 -4.847511 3.370167 -5.739975 0.000000 0.000000 0.000000 29.204017 -19.526363 0.801537 17.248326 -47.733330 -5.704134 17.133972 2.065226 0.532338 0.000000 0.000000 0.000000 2.644213 3.666572 0.556424 65.333880 0.633716 -9.030006 9.069895 21.331640 1.768806 0.000000 0.000000 0.000000 
0.010986 0.934576 -0.022905 1.221886 -14.907383 3.820857 4.865394 -0.061279 -2.238569 -5.149235 0.719976 -1.835382 8.005478 16.376370 10.347162 0.000000 0.000000 0.000000 -9.294232 0.817679 -7.664947 0.484171 0.080728 2.693466 5.183150 6.517662 7.253523 0.000000 0.000000 0.000000 2.912604 0.713057 -8.989620 2.919246 -1.069100 -11.282828 -3.715126 -4.778326 14.377449 -4.782496 3.346400 -5.460950 0.000000 0.000000 0.000000 28.931737 -19.566964 0.837114 18.274511 -48.080174 -6.123367 16.659476 2.846305 0.585769 0.000000 0.000000 0.000000 3.385699 3.463051 0.336989 64.909375 0.718863 -8.823824 8.673035 21.270892 1.699538 0.000000 0.000000 0.000000 
0.011073 0.934980 -0.023615 1.111034 -14.641947 4.006419 5.204116 -0.062438 -2.447020 -5.482784 0.760191 -1.928351 7.854114 16.121856 10.449823 0.000000 0.000000 0.000000 -9.246559 0.817446 -7.779764 0.641404 0.061677 2.617978 5.133885 6.260524 7.469321 0.000000 0.000000 0.000000 2.989737 0.722191 -9.069066 3.026834 -1.096494 -11.371689 -3.897214 -4.747189 14.069759 -4.753285 3.334941 -5.469979 0.000000 0.000000 0.000000 28.854289 -19.832455 0.941780 18.588384 -48.034409 -6.274717 15.994586 2.843487 0.544762 0.000000 0.000000 0.000000 4.169950 2.930917 -0.005974 64.576828 0.813725 -8.553392 8.316757 20.795207 1.604520 0.000000 0.000000 0.000000 
0.011174 0.935449 -0.024396 1.091776 -14.598553 4.012497 5.190187 -0.071041 -2.613872 -5.401046 0.751584 -1.744154 7.837454 16.084731 10.572592 0.000000 0.000000 0.000000 -9.211590 0.821093 -7.952657 0.635366 0.072375 2.846595 5.152689 6.198184 7.604935 0.000000 0.000000 0.000000 3.079359 0.712023 -8.914859 2.865426 -1.021691 -11.830271 -3.751428 -4.908217 14.160579 -4.885179 3.393852 -5.859406 0.000000 0.000000 0.000000 28.281503 -20.209537 1.057854 18.607017 -48.225775 -6.301519 15.098537 3.194047 0.530649 0.000000 0.000000 0.000000 4.827839 2.858432 -0.191166 64.280276 0.799801 -8.451833 7.796011 20.616973 1.495964 0.000000 0.000000 0.000000 
0.011401 0.935823 -0.025256 0.946747 -14.619184 4.127279 5.145622 -0.085971 -2.887452 -5.052636 0.707100 -1.513293 7.889023 16.158535 10.636648 0.000000 0.000000 0.000000 -8.931527 0.821950 -8.052542 0.409631 0.090280 2.751986 5.224969 6.188801 7.805104 0.000000 0.000000 0.000000 3.301233 0.706567 -8.720980 2.710068 -0.952739 -12.247140 -3.752422 -4.875762 14.139359 -4.470449 3.074883 -5.712376 0.000000 0.000000 0.000000 27.432544 -20.670085 1.285611 18.641491 -48.381998 -6.389429 14.431837 2.554596 0.429526 0.000000 0.000000 0.000000 5.540074 2.635849 -0.433094 64.079059 0.675787 -8.402282 7.599531 20.599706 1.459412 0.000000 0.000000 0.000000 
0.011634 0.936221 -0.026107 0.749493 -14.577731 4.339147 5.164660 -0.101651 -3.197522 -4.709913 0.660191 -1.396236 7.910602 16.183467 10.713170 0.000000 0.000000 0.000000 -8.589479 0.823954 -8.173123 0.173815 0.103972 2.556883 5.283456 6.118924 8.050923 0.000000 0.000000 0.000000 3.387139 0.712492 -8.740449 2.676074 -0.936875 -12.320685 -3.629348 -4.730946 13.954147 -4.145020 2.821054 -5.790969 0.000000 0.000000 0.000000 26.417185 -21.050808 1.591015 18.615505 -49.247169 -6.649630 14.165997 2.583137 0.409357 0.000000 0.000000 0.000000 6.078412 2.386518 -0.632789 63.515212 0.457451 -8.317123 7.853917 20.269173 1.478733 0.000000 0.000000 0.000000 
0.011900 0.936633 -0.026896 0.606617 -14.729809 4.478702 5.034390 -0.105698 -3.160931 -4.246297 0.595252 -1.722636 8.000430 16.309581 10.925862 0.000000 0.000000 0.000000 -8.297503 0.828305 -8.250610 -0.095957 0.118535 2.321959 5.429000 6.207112 8.308935 0.000000 0.000000 0.000000 3.472632 0.703219 -8.591073 2.912905 -1.016002 -12.366776 -3.788774 -4.728431 13.464567 -3.827992 2.576916 -5.685455 0.000000 0.000000 0.000000 25.293760 -21.511607 1.937677 18.442437 -49.479446 -6.698578 13.592724 1.900872 0.322564 0.000000 0.000000 0.000000 6.330926 2.360025 -0.710089 63.188603 0.396293 -8.205978 7.799051 19.997532 1.442091 0.000000 0.000000 0.000000 
